<svg version="1.2" xmlns="http://www.w3.org/2000/svg" viewBox="0 0 24 24" width="24" height="24">
	<title>tg-svg</title>
	<style>
		.s0 { fill: #787878 } 
		.s1 { fill: none } 
	</style>
	<path id="Layer" fill-rule="evenodd" class="s0" d="m22 12c0 5.5-4.5 10-10 10-5.5 0-10-4.5-10-10 0-5.5 4.5-10 10-10 5.5 0 10 4.5 10 10zm-5.8-4.8l-10.2 3.9c-0.7 0.3-0.7 0.7-0.1 0.9l2.7 0.9 0.9 3c0.1 0.2 0.1 0.4 0.4 0.4 0.2 0 0.3-0.2 0.5-0.3 0.1-0.2 0.7-0.7 1.3-1.3l2.6 2c0.4 0.3 0.8 0.2 0.9-0.4l1.7-8.2c0.2-0.8-0.3-1-0.7-0.9zm-1.4 2l-4.9 4.4-0.2 2-0.9-3 5.7-3.6c0.4-0.1 0.6-0.1 0.3 0.2z"/>
	<path id="Layer" class="s1" d="m0 0h24v24h-24z"/>
</svg>